<mxfile host="65bd71144e">
    <diagram id="vIdMB9bvqf35R62R5fhc" name="第 1 页">
        <mxGraphModel dx="1840" dy="901" grid="1" gridSize="10" guides="1" tooltips="1" connect="1" arrows="1" fold="1" page="1" pageScale="1" pageWidth="827" pageHeight="1169" math="0" shadow="0">
            <root>
                <mxCell id="0"/>
                <mxCell id="1" parent="0"/>
                <mxCell id="37" value="5mins" style="edgeStyle=none;html=1;exitX=1;exitY=1;exitDx=0;exitDy=0;entryX=1;entryY=0;entryDx=0;entryDy=0;strokeWidth=3;fontSize=15;fontStyle=1" parent="1" source="11" target="17" edge="1">
                    <mxGeometry relative="1" as="geometry">
                        <Array as="points">
                            <mxPoint x="140" y="270"/>
                        </Array>
                    </mxGeometry>
                </mxCell>
                <mxCell id="11" value="&lt;span style=&quot;font-size: 16pt; font-family: &amp;quot;Times New Roman&amp;quot;;&quot;&gt;warning_state&lt;/span&gt;" style="rounded=1;whiteSpace=wrap;html=1;" parent="1" vertex="1">
                    <mxGeometry x="-150" y="70" width="220" height="70" as="geometry"/>
                </mxCell>
                <mxCell id="33" value="30s or reset" style="edgeStyle=none;html=1;exitX=1;exitY=0.25;exitDx=0;exitDy=0;entryX=0;entryY=0.25;entryDx=0;entryDy=0;strokeWidth=3;fontSize=15;fontStyle=1" parent="1" source="12" target="17" edge="1">
                    <mxGeometry relative="1" as="geometry"/>
                </mxCell>
                <mxCell id="12" value="&lt;span style=&quot;font-size: 16pt; font-family: &amp;quot;Times New Roman&amp;quot;;&quot;&gt;switch_state&lt;/span&gt;" style="rounded=1;whiteSpace=wrap;html=1;" parent="1" vertex="1">
                    <mxGeometry x="-480" y="410" width="220" height="70" as="geometry"/>
                </mxCell>
                <mxCell id="30" value="30s or reset" style="edgeStyle=none;html=1;exitX=0.75;exitY=1;exitDx=0;exitDy=0;entryX=0.75;entryY=0;entryDx=0;entryDy=0;strokeWidth=3;fontSize=15;fontStyle=1" parent="1" source="13" target="17" edge="1">
                    <mxGeometry x="0.013" relative="1" as="geometry">
                        <mxPoint as="offset"/>
                    </mxGeometry>
                </mxCell>
                <mxCell id="13" value="&lt;span style=&quot;font-size: 16pt; font-family: &amp;quot;Times New Roman&amp;quot;;&quot;&gt;password_mistake_state&lt;/span&gt;" style="rounded=1;whiteSpace=wrap;html=1;" parent="1" vertex="1">
                    <mxGeometry x="-150" y="230" width="220" height="70" as="geometry"/>
                </mxCell>
                <mxCell id="26" value="30s or reset" style="edgeStyle=none;html=1;exitX=0.5;exitY=1;exitDx=0;exitDy=0;entryX=0.75;entryY=1;entryDx=0;entryDy=0;strokeWidth=3;fontSize=15;fontStyle=1" parent="1" source="14" target="17" edge="1">
                    <mxGeometry relative="1" as="geometry"/>
                </mxCell>
                <mxCell id="14" value="&lt;span style=&quot;font-size: 16pt; font-family: &amp;quot;Times New Roman&amp;quot;;&quot;&gt;change_mistake_state&lt;/span&gt;" style="rounded=1;whiteSpace=wrap;html=1;" parent="1" vertex="1">
                    <mxGeometry x="180" y="580" width="220" height="70" as="geometry"/>
                </mxCell>
                <mxCell id="25" value="30s or reset" style="edgeStyle=none;html=1;exitX=0.5;exitY=0;exitDx=0;exitDy=0;entryX=0.75;entryY=0;entryDx=0;entryDy=0;strokeWidth=3;fontSize=15;fontStyle=1" parent="1" source="15" target="17" edge="1">
                    <mxGeometry relative="1" as="geometry"/>
                </mxCell>
                <mxCell id="15" value="&lt;span style=&quot;font-size: 16pt; font-family: &amp;quot;Times New Roman&amp;quot;;&quot;&gt;change_success_state&lt;/span&gt;" style="rounded=1;whiteSpace=wrap;html=1;" parent="1" vertex="1">
                    <mxGeometry x="180" y="230" width="220" height="70" as="geometry"/>
                </mxCell>
                <mxCell id="23" value="length(password) = 6" style="edgeStyle=none;html=1;strokeWidth=3;fontSize=15;fontStyle=1" parent="1" source="16" target="15" edge="1">
                    <mxGeometry relative="1" as="geometry"/>
                </mxCell>
                <mxCell id="24" value="&lt;span style=&quot;border-color: var(--border-color);&quot;&gt;length(password) != 6&lt;/span&gt;" style="edgeStyle=none;html=1;strokeWidth=3;fontSize=15;fontStyle=1" parent="1" source="16" target="14" edge="1">
                    <mxGeometry relative="1" as="geometry">
                        <Array as="points">
                            <mxPoint x="290" y="520"/>
                        </Array>
                    </mxGeometry>
                </mxCell>
                <mxCell id="35" value="reset" style="edgeStyle=none;html=1;exitX=0;exitY=0.75;exitDx=0;exitDy=0;entryX=1;entryY=0.75;entryDx=0;entryDy=0;strokeWidth=3;fontSize=15;fontStyle=1" parent="1" source="16" target="17" edge="1">
                    <mxGeometry relative="1" as="geometry"/>
                </mxCell>
                <mxCell id="16" value="&lt;span style=&quot;font-size: 16pt; font-family: &amp;quot;Times New Roman&amp;quot;;&quot;&gt;change_password_state&lt;/span&gt;" style="rounded=1;whiteSpace=wrap;html=1;" parent="1" vertex="1">
                    <mxGeometry x="180" y="410" width="220" height="70" as="geometry"/>
                </mxCell>
                <mxCell id="31" value="ok = 1 or &lt;br&gt;change = 1&lt;br&gt;密码错误&lt;br&gt;count++" style="edgeStyle=none;html=1;exitX=0.25;exitY=0;exitDx=0;exitDy=0;entryX=0.25;entryY=1;entryDx=0;entryDy=0;strokeWidth=3;fontSize=15;fontStyle=1" parent="1" source="17" target="13" edge="1">
                    <mxGeometry relative="1" as="geometry"/>
                </mxCell>
                <mxCell id="32" value="ok = 1&lt;br&gt;密码正确" style="edgeStyle=none;html=1;exitX=0;exitY=0.75;exitDx=0;exitDy=0;entryX=1;entryY=0.75;entryDx=0;entryDy=0;strokeWidth=3;fontSize=15;fontStyle=1" parent="1" source="17" target="12" edge="1">
                    <mxGeometry relative="1" as="geometry"/>
                </mxCell>
                <mxCell id="34" value="change = 1&lt;br&gt;密码正确" style="edgeStyle=none;html=1;exitX=1;exitY=0.25;exitDx=0;exitDy=0;entryX=0;entryY=0.25;entryDx=0;entryDy=0;strokeWidth=3;fontSize=15;fontStyle=1" parent="1" edge="1">
                    <mxGeometry relative="1" as="geometry">
                        <mxPoint x="70" y="427.5" as="sourcePoint"/>
                        <mxPoint x="180" y="427.5" as="targetPoint"/>
                    </mxGeometry>
                </mxCell>
                <mxCell id="36" value="count &amp;gt;= 3&lt;br&gt;count = 0" style="edgeStyle=none;html=1;exitX=0;exitY=0;exitDx=0;exitDy=0;entryX=0;entryY=0.75;entryDx=0;entryDy=0;strokeWidth=3;fontSize=15;fontStyle=1" parent="1" source="17" target="11" edge="1">
                    <mxGeometry relative="1" as="geometry">
                        <Array as="points">
                            <mxPoint x="-220" y="270"/>
                        </Array>
                    </mxGeometry>
                </mxCell>
                <mxCell id="17" value="&lt;span style=&quot;font-size: 16pt; font-family: &amp;quot;Times New Roman&amp;quot;;&quot;&gt;in_password_state&lt;/span&gt;" style="rounded=1;whiteSpace=wrap;html=1;" parent="1" vertex="1">
                    <mxGeometry x="-150" y="410" width="220" height="70" as="geometry"/>
                </mxCell>
                <mxCell id="39" value="&lt;b&gt;&lt;font style=&quot;font-size: 19px;&quot;&gt;核心状态机状态转换图&lt;/font&gt;&lt;/b&gt;" style="text;html=1;align=center;verticalAlign=middle;resizable=0;points=[];autosize=1;strokeColor=none;fillColor=none;fontSize=15;" parent="1" vertex="1">
                    <mxGeometry x="190" y="760" width="210" height="40" as="geometry"/>
                </mxCell>
                <mxCell id="40" value="&lt;p style=&quot;border-color: var(--border-color);&quot;&gt;&lt;span style=&quot;border-color: var(--border-color);&quot;&gt;等待密码状态&lt;/span&gt;&lt;span style=&quot;border-color: var(--border-color);&quot;&gt;（&lt;/span&gt;&lt;span style=&quot;border-color: var(--border-color);&quot;&gt;in_password_state&lt;/span&gt;&lt;span style=&quot;border-color: var(--border-color);&quot;&gt;）&lt;/span&gt;&lt;/p&gt;&lt;p style=&quot;border-color: var(--border-color);&quot;&gt;&lt;span style=&quot;border-color: var(--border-color);&quot;&gt;修改密码状态&lt;/span&gt;&lt;span style=&quot;border-color: var(--border-color);&quot;&gt;（&lt;/span&gt;&lt;span style=&quot;border-color: var(--border-color);&quot;&gt;change_password_state&lt;/span&gt;&lt;span style=&quot;border-color: var(--border-color);&quot;&gt;）&lt;/span&gt;&lt;/p&gt;&lt;p style=&quot;border-color: var(--border-color);&quot;&gt;&lt;span style=&quot;border-color: var(--border-color);&quot;&gt;警报状态&lt;/span&gt;&lt;span style=&quot;border-color: var(--border-color);&quot;&gt;（&lt;/span&gt;&lt;span style=&quot;border-color: var(--border-color);&quot;&gt;warning_state&lt;/span&gt;&lt;span style=&quot;border-color: var(--border-color);&quot;&gt;）&lt;/span&gt;&lt;/p&gt;&lt;p style=&quot;border-color: var(--border-color);&quot;&gt;&lt;span style=&quot;border-color: var(--border-color);&quot;&gt;开门状态&lt;/span&gt;&lt;span style=&quot;border-color: var(--border-color);&quot;&gt;（&lt;/span&gt;&lt;span style=&quot;border-color: var(--border-color);&quot;&gt;switch_state&lt;/span&gt;&lt;span style=&quot;border-color: var(--border-color);&quot;&gt;）&lt;/span&gt;&lt;/p&gt;&lt;p style=&quot;border-color: var(--border-color);&quot;&gt;&lt;span style=&quot;border-color: var(--border-color);&quot;&gt;输入密码开门错误状态&lt;/span&gt;&lt;span style=&quot;border-color: var(--border-color);&quot;&gt;（&lt;/span&gt;&lt;span style=&quot;border-color: var(--border-color);&quot;&gt;password_mistake_state&lt;/span&gt;&lt;span style=&quot;border-color: var(--border-color);&quot;&gt;）&lt;/span&gt;&lt;/p&gt;&lt;p style=&quot;border-color: var(--border-color);&quot;&gt;&lt;span style=&quot;border-color: var(--border-color);&quot;&gt;修改密码错误状态&lt;/span&gt;&lt;span style=&quot;border-color: var(--border-color);&quot;&gt;（&lt;/span&gt;&lt;span style=&quot;border-color: var(--border-color);&quot;&gt;change_mistake_state&lt;/span&gt;&lt;span style=&quot;border-color: var(--border-color);&quot;&gt;）&lt;/span&gt;&lt;/p&gt;&lt;p style=&quot;border-color: var(--border-color);&quot;&gt;&lt;span style=&quot;border-color: var(--border-color);&quot;&gt;修改密码成功状态&lt;/span&gt;&lt;span style=&quot;border-color: var(--border-color);&quot;&gt;（&lt;/span&gt;&lt;span style=&quot;border-color: var(--border-color);&quot;&gt;change_success_state&lt;/span&gt;&lt;span style=&quot;border-color: var(--border-color);&quot;&gt;）&lt;/span&gt;&lt;/p&gt;" style="text;whiteSpace=wrap;html=1;fontSize=19;" parent="1" vertex="1">
                    <mxGeometry x="-480" y="500" width="450" height="300" as="geometry"/>
                </mxCell>
            </root>
        </mxGraphModel>
    </diagram>
</mxfile>